<svg id="visual" viewBox="0 0 343 63" width="343" height="63" xmlns="http://www.w3.org/2000/svg" xmlns:xlink="http://www.w3.org/1999/xlink" version="1.1"><rect x="0" y="0" width="343" height="63" fill="#fafdfd"></rect><defs><linearGradient id="grad1_0" x1="81.6%" y1="100%" x2="100%" y2="0%"><stop offset="-58.8888888888889%" stop-color="#4ade80" stop-opacity="1"></stop><stop offset="158.88888888888889%" stop-color="#4ade80" stop-opacity="1"></stop></linearGradient></defs><defs><linearGradient id="grad1_1" x1="81.6%" y1="100%" x2="100%" y2="0%"><stop offset="-58.8888888888889%" stop-color="#4ade80" stop-opacity="1"></stop><stop offset="158.88888888888889%" stop-color="#fafdfd" stop-opacity="1"></stop></linearGradient></defs><defs><linearGradient id="grad2_0" x1="0%" y1="100%" x2="18.4%" y2="0%"><stop offset="-58.8888888888889%" stop-color="#4ade80" stop-opacity="1"></stop><stop offset="158.88888888888889%" stop-color="#4ade80" stop-opacity="1"></stop></linearGradient></defs><defs><linearGradient id="grad2_1" x1="0%" y1="100%" x2="18.4%" y2="0%"><stop offset="-58.8888888888889%" stop-color="#fafdfd" stop-opacity="1"></stop><stop offset="158.88888888888889%" stop-color="#4ade80" stop-opacity="1"></stop></linearGradient></defs><g transform="translate(343, 63)"><path d="M-63 0C-59.5 -7 -56 -14.1 -53.6 -22.2C-51.2 -30.3 -49.9 -39.6 -44.5 -44.5C-39.2 -49.5 -29.9 -50.3 -21.8 -52.7C-13.7 -55 -6.9 -59 0 -63L0 0Z" fill="#90f2d8"></path><path d="M-31.5 0C-29.7 -3.5 -28 -7 -26.8 -11.1C-25.6 -15.2 -24.9 -19.8 -22.3 -22.3C-19.6 -24.8 -15 -25.1 -10.9 -26.3C-6.9 -27.5 -3.4 -29.5 0 -31.5L0 0Z" fill="#4ade80"></path></g><g transform="translate(0, 0)"><path d="M63 0C55.9 5.4 48.9 10.7 47.1 19.5C45.4 28.3 48.9 40.5 44.5 44.5C40.2 48.6 27.9 44.5 19.1 46.2C10.4 47.9 5.2 55.5 0 63L0 0Z" fill="#90f2d8"></path><path d="M31.5 0C28 2.7 24.4 5.4 23.6 9.8C22.7 14.2 24.5 20.3 22.3 22.3C20.1 24.3 13.9 22.2 9.6 23.1C5.2 24 2.6 27.7 0 31.5L0 0Z" fill="#4ade80"></path></g></svg>